<svg width="17" height="17" viewBox="0 0 17 17" fill="none" xmlns="http://www.w3.org/2000/svg">
<path d="M15.9998 6.33333H4.33317V3.83333C4.33317 2.91417 5.08067 2.16667 5.99984 2.16667C6.919 2.16667 7.6665 2.91417 7.6665 3.83333H9.33317C9.33317 1.995 7.83817 0.5 5.99984 0.5C4.1615 0.5 2.6665 1.995 2.6665 3.83333V6.33333H0.999837C0.778824 6.33333 0.566862 6.42113 0.410582 6.57741C0.254301 6.73369 0.166504 6.94565 0.166504 7.16667V8.83333C0.166504 11.005 1.5615 12.8525 3.49984 13.5417V16.3333H5.1665V13.8333H11.8332V16.3333H13.4998V13.5417C15.4382 12.8525 16.8332 11.005 16.8332 8.83333V7.16667C16.8332 6.94565 16.7454 6.73369 16.5891 6.57741C16.4328 6.42113 16.2209 6.33333 15.9998 6.33333V6.33333ZM15.1665 8.83333C15.1665 10.6717 13.6715 12.1667 11.8332 12.1667H5.1665C3.32817 12.1667 1.83317 10.6717 1.83317 8.83333V8H15.1665V8.83333Z" fill="#2986FE"/>
</svg>
