<svg width="18" height="12" viewBox="0 0 18 12" fill="none" xmlns="http://www.w3.org/2000/svg">
<path d="M16.4998 4.98317V2.6665C16.4998 1.2915 15.3748 0.166504 13.9998 0.166504H10.6665C10.0248 0.166504 9.4415 0.416504 8.99984 0.816504C8.55817 0.416504 7.97484 0.166504 7.33317 0.166504H3.99984C2.62484 0.166504 1.49984 1.2915 1.49984 2.6665V4.98317C0.991504 5.44151 0.666504 6.09984 0.666504 6.83317V11.8332H2.33317V10.1665H15.6665V11.8332H17.3332V6.83317C17.3332 6.09984 17.0082 5.44151 16.4998 4.98317ZM10.6665 1.83317H13.9998C14.4582 1.83317 14.8332 2.20817 14.8332 2.6665V4.33317H9.83317V2.6665C9.83317 2.20817 10.2082 1.83317 10.6665 1.83317ZM3.1665 2.6665C3.1665 2.20817 3.5415 1.83317 3.99984 1.83317H7.33317C7.7915 1.83317 8.1665 2.20817 8.1665 2.6665V4.33317H3.1665V2.6665ZM2.33317 8.49984V6.83317C2.33317 6.37484 2.70817 5.99984 3.1665 5.99984H14.8332C15.2915 5.99984 15.6665 6.37484 15.6665 6.83317V8.49984H2.33317Z" fill="#2986FE"/>
</svg>
