<svg width="90" height="90" viewBox="0 0 90 90" fill="none" xmlns="http://www.w3.org/2000/svg">
<circle cx="45" cy="45" r="45" fill="#2986FE"/>
<path d="M49.525 60.0825H42.3088C37.5938 60.0825 33.77 56.115 33.77 51.2275C33.77 50.0487 34.7475 49.0712 35.9263 49.0712C37.105 49.0712 38.0825 50.0487 38.0825 51.2275C38.0825 53.7287 39.98 55.77 42.3088 55.77H49.525C51.3938 55.77 52.9463 54.1025 52.9463 52.09C52.9463 49.5887 52.055 49.1 50.5888 48.5825L39.0025 44.5C36.76 43.7237 33.7413 42.0562 33.7413 36.91C33.7413 32.4825 37.22 28.9175 41.475 28.9175H48.6913C53.4063 28.9175 57.23 32.885 57.23 37.7725C57.23 38.9512 56.2525 39.9287 55.0738 39.9287C53.895 39.9287 52.9175 38.9512 52.9175 37.7725C52.9175 35.2712 51.02 33.23 48.6913 33.23H41.475C39.6063 33.23 38.0538 34.8975 38.0538 36.91C38.0538 39.4112 38.945 39.9 40.4113 40.4175L51.9975 44.5C54.24 45.2762 57.2588 46.9437 57.2588 52.09C57.23 56.4887 53.78 60.0825 49.525 60.0825Z" fill="white"/>
<path d="M45.0688 63.475C44.1258 63.475 43.3438 62.4975 43.3438 61.3187V26.8187C43.3438 25.64 44.1258 24.6625 45.0688 24.6625C46.0118 24.6625 46.7938 25.64 46.7938 26.8187V61.3187C46.7938 62.4975 46.0118 63.475 45.0688 63.475Z" fill="white"/>
</svg>
