<svg width="54" height="54" viewBox="0 0 54 54" fill="none" xmlns="http://www.w3.org/2000/svg">
<g filter="url(#filter0_d_3708_3355)">
<rect x="9" y="3" width="36" height="36" rx="18" fill="#FBFDFF" shape-rendering="crispEdges"/>
<path d="M22.8337 17.667H20.3337C19.417 17.667 18.667 16.917 18.667 16.0003V14.3337C18.667 13.417 19.417 12.667 20.3337 12.667H22.8337C23.7503 12.667 24.5003 13.417 24.5003 14.3337V16.0003C24.5003 16.917 23.7503 17.667 22.8337 17.667Z" fill="#94BA2C"/>
<path d="M34.333 16.8333H31.333C30.783 16.8333 30.333 16.3833 30.333 15.8333V14.5C30.333 13.95 30.783 13.5 31.333 13.5H34.333C34.883 13.5 35.333 13.95 35.333 14.5V15.8333C35.333 16.3833 34.883 16.8333 34.333 16.8333Z" fill="#94BA2C"/>
<path d="M34.333 23.0833H31.333C30.783 23.0833 30.333 22.6333 30.333 22.0833V20.75C30.333 20.2 30.783 19.75 31.333 19.75H34.333C34.883 19.75 35.333 20.2 35.333 20.75V22.0833C35.333 22.6333 34.883 23.0833 34.333 23.0833Z" fill="#94BA2C"/>
<path opacity="0.37" d="M30.3333 22.042C30.675 22.042 30.9583 21.7587 30.9583 21.417C30.9583 21.0753 30.675 20.792 30.3333 20.792H28.0417V15.792H30.3333C30.675 15.792 30.9583 15.5087 30.9583 15.167C30.9583 14.8253 30.675 14.542 30.3333 14.542H24.5C24.1583 14.542 23.875 14.8253 23.875 15.167C23.875 15.5087 24.1583 15.792 24.5 15.792H26.7917V26.0003C26.7917 27.267 27.8167 28.292 29.0833 28.292H30.3333C30.675 28.292 30.9583 28.0087 30.9583 27.667C30.9583 27.3253 30.675 27.042 30.3333 27.042H29.0833C28.5083 27.042 28.0417 26.5753 28.0417 26.0003V22.042H30.3333Z" fill="#94BA2C"/>
<path d="M34.333 29.3333H31.333C30.783 29.3333 30.333 28.8833 30.333 28.3333V27C30.333 26.45 30.783 26 31.333 26H34.333C34.883 26 35.333 26.45 35.333 27V28.3333C35.333 28.8833 34.883 29.3333 34.333 29.3333Z" fill="#94BA2C"/>
</g>
<defs>
<filter id="filter0_d_3708_3355" x="0" y="0" width="54" height="54" filterUnits="userSpaceOnUse" color-interpolation-filters="sRGB">
<feFlood flood-opacity="0" result="BackgroundImageFix"/>
<feColorMatrix in="SourceAlpha" type="matrix" values="0 0 0 0 0 0 0 0 0 0 0 0 0 0 0 0 0 0 127 0" result="hardAlpha"/>
<feOffset dy="6"/>
<feGaussianBlur stdDeviation="4.5"/>
<feComposite in2="hardAlpha" operator="out"/>
<feColorMatrix type="matrix" values="0 0 0 0 0.580392 0 0 0 0 0.729412 0 0 0 0 0.172549 0 0 0 0.15 0"/>
<feBlend mode="normal" in2="BackgroundImageFix" result="effect1_dropShadow_3708_3355"/>
<feBlend mode="normal" in="SourceGraphic" in2="effect1_dropShadow_3708_3355" result="shape"/>
</filter>
</defs>
</svg>
