<svg width="38" height="50" viewBox="0 0 38 50" fill="none" xmlns="http://www.w3.org/2000/svg">
<path d="M32.616 16.4243V36.9547L18.5185 44.7735L4.42107 36.9547V16.4243L0 18.8755V39.4059L18.5185 49.6758L37.037 39.4059V18.8755L32.616 16.4243Z" fill="#2986FE"/>
<path d="M11.6097 8.09702L18.3187 4.20201L25.1876 8.17857L28.5896 6.29342L18.3187 0L8.2027 6.20708" fill="#2986FE"/>
<path d="M17.999 12.6156V41.3774L17.939 41.3438L15.4862 39.9815L14.4521 39.4107V26.6607L11.1151 24.6077V37.631L7.57324 35.6643V6.83069L11.1151 8.86934V20.3865L14.4521 22.4395V10.577L17.999 12.6156Z" fill="#2986FE"/>
<path d="M29.4688 11.1047V6.83069L18.9481 12.5965V41.3486L29.4688 35.6643L29.4038 32.3018L22.1603 36.0625V15.0716L29.4688 11.1047Z" fill="#2986FE"/>
</svg>
